<svg width="104" height="82" viewBox="0 0 104 82" fill="none" xmlns="http://www.w3.org/2000/svg">
<g clip-path="url(#clip0_1627_13496)">
<path d="M0.710787 56.2545H103.289V25.7578H0.710787V56.2545ZM104 56.9654H0V25.0469H104V56.9654Z" fill="#4374BA"/>
<path d="M49.0325 44.3945C48.0255 44.3945 47.4688 45.3424 47.4688 46.7641C47.4688 48.1859 48.0374 49.1337 49.0325 49.1337C50.0276 49.1337 50.5844 48.1977 50.5844 46.7641C50.5844 45.3305 50.0394 44.3945 49.0325 44.3945Z" fill="#4374BA"/>
<path d="M21.0037 36.4565H22.52L21.7855 33.8618L21.0037 36.4565Z" fill="#4374BA"/>
<path d="M10.4012 47.4634H9.76147V49.2524H10.413C11.0883 49.2524 11.4792 48.9562 11.4792 48.3638C11.4792 47.7714 11.1001 47.4634 10.4012 47.4634Z" fill="#4374BA"/>
<path d="M83.8373 35.5443C83.8373 33.9686 83.008 33.2695 81.8115 33.2695H81.314V37.9139H81.8234C83.0672 37.9139 83.8373 37.2505 83.8373 35.6273" fill="#4374BA"/>
<path d="M47.2082 34.3593C47.2082 33.6721 46.7699 33.293 46.0236 33.293H45.4905V35.4967H45.9999C46.7936 35.4967 47.1845 35.082 47.1845 34.3119" fill="#4374BA"/>
<path d="M11.3251 45.1411C11.3251 44.679 11.0526 44.3828 10.4129 44.3828H9.74951V45.9704H10.3774C11.0052 45.9704 11.3251 45.6387 11.3251 45.1411Z" fill="#4374BA"/>
<path d="M67.5247 44.4775H67.2285V46.6813H67.5247C68.3302 46.6813 68.7686 46.3258 68.7686 45.5557C68.7686 44.7856 68.3658 44.4775 67.5839 44.4775" fill="#4374BA"/>
<path d="M93.5868 47.9965V50.9467H91.2176V48.0439L88.3981 42.9493L90.9688 42.6531L92.5088 45.8165L94.0252 42.7479H96.5366L93.5868 47.9965ZM87.6636 50.9467H85.4365L82.7355 46.6577V50.9467H80.4728V42.6531H82.8421L85.2943 46.634V42.6531H87.6636V50.9467ZM77.2387 51.0178L76.7649 49.5605H74.135L73.7085 50.9467H71.3392L74.1705 42.6531H76.907L79.6317 50.6149L77.2387 51.0178ZM67.6313 48.4586H67.2403V50.9467H64.871V42.6531H67.7142C69.8347 42.6531 71.1378 43.5772 71.1378 45.4611C71.1378 47.3449 69.7636 48.4112 67.6905 48.4112M64.563 39.6437H62.1938V31.4567H67.2877V33.459H64.5157V34.7623H66.5177L66.8494 36.8002H64.4801V39.6911L64.563 39.6437ZM61.1631 50.9467L60.867 45.9231L59.7534 50.9467H57.3841L56.2587 45.9231L55.9744 50.9467H53.8775L54.4936 42.6531H57.6566L58.8412 47.8544L60.0258 42.6531H63.0941L63.6864 50.9467H61.1631ZM49.0205 51.1007C48.4674 51.1183 47.9168 51.018 47.4055 50.8062C46.8942 50.5945 46.4338 50.2763 46.055 49.8728C45.6762 49.4693 45.3876 48.9897 45.2085 48.466C45.0295 47.9423 44.964 47.3864 45.0164 46.8354C44.9868 46.292 45.0683 45.7483 45.2558 45.2374C45.4434 44.7265 45.7331 44.2592 46.1073 43.8641C46.4815 43.4689 46.9322 43.1542 47.4321 42.9391C47.932 42.724 48.4704 42.6131 49.0146 42.6131C49.5587 42.6131 50.0972 42.724 50.597 42.9391C51.0969 43.1542 51.5477 43.4689 51.9219 43.8641C52.296 44.2592 52.5857 44.7265 52.7733 45.2374C52.9609 45.7483 53.0423 46.292 53.0128 46.8354C53.0613 47.3872 52.9928 47.943 52.8117 48.4664C52.6306 48.9899 52.341 49.4692 51.9619 49.8729C51.5828 50.2767 51.1227 50.5958 50.6117 50.8095C50.1008 51.0231 49.5504 51.1264 48.9968 51.1126M41.9956 51.1126C41.4324 51.1509 40.8678 51.065 40.3416 50.8608C39.8154 50.6567 39.3405 50.3394 38.9505 49.9313C38.5606 49.5232 38.2651 49.0343 38.085 48.4993C37.905 47.9643 37.8447 47.3963 37.9085 46.8354C37.8619 46.2872 37.9311 45.7353 38.1116 45.2155C38.2922 44.6958 38.5801 44.2199 38.9567 43.8187C39.3332 43.4175 39.7899 43.1001 40.2971 42.887C40.8044 42.674 41.3508 42.57 41.9008 42.582C42.6729 42.5601 43.4394 42.7183 44.1398 43.0441L43.8318 45.1767C43.3456 44.7989 42.753 44.5834 42.1377 44.5606C41.0834 44.5606 40.3607 45.3781 40.3607 46.8117C40.3607 48.2453 41.2374 49.0629 42.3036 49.0629C42.8952 49.0389 43.4724 48.8723 43.9858 48.5771L44.2938 50.5083C43.5901 50.868 42.8094 51.051 42.0192 51.0415M36.4751 31.4567H41.9008V33.3524H38.8562V34.5372H41.1545L41.4625 36.4447H38.8562V37.7836H41.9956V39.6792H36.4633V31.4567H36.4751ZM33.1699 39.8214C32.6059 39.8616 32.0399 39.777 31.5122 39.5737C30.9845 39.3704 30.5081 39.0533 30.1168 38.645C29.7255 38.2367 29.429 37.7472 29.2482 37.2113C29.0675 36.6754 29.007 36.1062 29.0711 35.5443C29.0244 34.996 29.0936 34.4441 29.2742 33.9244C29.4548 33.4046 29.7427 32.9287 30.1192 32.5276C30.4957 32.1264 30.9525 31.809 31.4597 31.5959C31.9669 31.3828 32.5133 31.2789 33.0633 31.2909C33.8351 31.2724 34.6009 31.4304 35.3023 31.7529L34.9706 33.8856C34.4907 33.5063 33.9 33.2941 33.2884 33.2813C32.2341 33.2813 31.5114 34.087 31.5114 35.5206C31.5114 36.9542 32.3762 37.7717 33.4543 37.7717C34.0362 37.7531 34.6051 37.5946 35.1128 37.3096L35.4208 39.2409C34.7157 39.5966 33.936 39.7794 33.1463 39.774M34.5678 50.9467H29.0355V42.6531H34.4612V44.5488H31.4285V45.6625H33.7267L34.0347 47.6411H31.4285V48.9918H34.5678V50.9467ZM27.7443 47.6411C27.7784 48.1108 27.7088 48.5823 27.5403 49.0222C27.3719 49.462 27.1088 49.8593 26.7696 50.1861C26.4305 50.5129 26.0236 50.761 25.5779 50.9129C25.1321 51.0648 24.6584 51.1168 24.1903 51.0652C23.7201 51.128 23.2418 51.0838 22.791 50.9359C22.3402 50.788 21.9287 50.5402 21.587 50.2111C21.2454 49.8819 20.9824 49.4798 20.8178 49.0348C20.6532 48.5898 20.5912 48.1134 20.6364 47.6411V42.6531H23.0768V47.5937C23.0768 48.506 23.5032 48.9799 24.1903 48.9799C24.8774 48.9799 25.2921 48.4823 25.2921 47.6293V42.6531H27.7324V47.57L27.7443 47.6411ZM20.0678 39.6911H17.7696L20.6009 31.3975H23.3374L26.0621 39.3949L23.598 39.774L23.1242 38.3167H20.4942L20.0678 39.6911ZM14.7843 50.9467V42.6531H17.2246V48.8022H19.5939L19.8901 50.9467H14.7843ZM10.5432 50.9467H7.46315V42.6531H10.6617C12.569 42.6531 13.5167 43.4114 13.5167 44.7857C13.5242 45.1645 13.4144 45.5364 13.2023 45.8503C12.9902 46.1642 12.6862 46.4049 12.332 46.5392C12.7755 46.6506 13.1643 46.9177 13.4274 47.2918C13.6905 47.6658 13.8105 48.122 13.7655 48.5771C13.7655 50.141 12.5808 50.9467 10.5432 50.9467ZM43.1091 31.4567H46.2603C48.3808 31.4567 49.601 32.4046 49.601 34.1581C49.6263 34.6496 49.5046 35.1376 49.2514 35.5596C48.9982 35.9817 48.625 36.3187 48.1794 36.5277L49.9564 39.3712L47.4568 39.7622L45.9286 37.1319H45.5258V39.6792H43.1565L43.1091 31.4567ZM50.3828 31.4567H56.9932L57.3249 33.4827H54.9556V39.6792H52.5152V33.4827H50.3828V31.4567ZM58.237 31.4567H60.6774V39.7503H58.2252L58.237 31.4567ZM68.3658 31.4567H70.8061V39.7503H68.3658V31.4567ZM72.2395 31.4567H77.6534V33.3524H74.6325V34.5372H76.9307L77.2387 36.504H74.6325V37.8428H77.7718V39.7385H72.2632L72.2395 31.4567ZM78.8972 31.4567H81.9181C84.7849 31.4567 86.3013 33.1036 86.3013 35.568C86.339 36.1336 86.2526 36.7006 86.048 37.2293C85.8435 37.758 85.5257 38.2355 85.1171 38.6283C84.7085 39.0212 84.2189 39.3199 83.6826 39.5035C83.1464 39.6871 82.5765 39.7511 82.0129 39.6911H78.8854L78.8972 31.4567ZM2.04932 55.0935H101.95V26.9189H2.04932V55.0935Z" fill="#4374BA"/>
<path d="M74.6562 47.7003H76.1844L75.4263 45.0938L74.6562 47.7003Z" fill="#4374BA"/>
<path d="M34.4968 67.7236L33.6912 67.3681L33.0752 66.7639L33.5491 65.8042L34.2598 64.9985L35.0654 65.3421L35.6814 65.9582L35.2076 66.9179L34.4968 67.7236Z" fill="#4374BA"/>
<path d="M71.2919 66.728L70.6759 67.3559L69.8822 67.7114L69.1595 66.9176L68.6738 65.9579L69.2898 65.3418L70.0836 64.9863L70.8062 65.7801L71.2919 66.728Z" fill="#4374BA"/>
<path d="M31.9854 22.0492C31.1798 22.926 29.9952 22.8075 28.8935 21.8004C27.7917 20.7933 27.5903 19.573 28.3485 18.7555C28.6004 18.4646 28.9352 18.2579 29.3081 18.1631L29.9952 18.9806C29.6633 18.9922 29.3489 19.1324 29.1185 19.3716C28.7158 19.81 28.8579 20.4498 29.5569 21.0777C30.2558 21.7056 30.931 21.753 31.3338 21.3147C31.5367 21.0642 31.6604 20.759 31.6892 20.4379L32.4829 20.9948C32.426 21.388 32.2528 21.7553 31.9854 22.0492Z" fill="#4374BA"/>
<path d="M31.8077 16.6938C31.3694 17.0611 31.4997 17.7246 32.1039 18.4592C32.7081 19.1938 33.2886 19.4307 33.7743 19.0753C34.26 18.7198 34.0823 18.0327 33.4781 17.3099C32.8739 16.5872 32.2934 16.3384 31.8077 16.6938ZM34.3547 19.7743C33.4899 20.497 32.2934 20.2127 31.3576 19.0753C30.4217 17.9379 30.3506 16.7057 31.2154 15.983C32.0802 15.2602 33.2885 15.5446 34.2244 16.6701C35.1603 17.7957 35.2314 19.0397 34.3547 19.7743Z" fill="#4374BA"/>
<path d="M35.267 14.2178L34.9945 14.3837L35.729 15.5685L35.9778 15.4145C36.059 15.3706 36.1295 15.3094 36.1844 15.2352C36.2392 15.161 36.277 15.0756 36.2951 14.9851C36.3132 14.8946 36.3112 14.8012 36.2891 14.7116C36.267 14.622 36.2254 14.5383 36.1673 14.4666C36.1335 14.3827 36.0806 14.3079 36.0128 14.2481C35.9449 14.1883 35.8641 14.1452 35.7766 14.1221C35.6892 14.0991 35.5975 14.0969 35.5091 14.1155C35.4206 14.1342 35.3377 14.1733 35.267 14.2297M38.7498 16.4215L38.0154 17.1087L36.4042 16.1372L36.1792 16.2794L37.0439 17.6537L36.2147 18.1632L33.7151 14.2178L34.8997 13.5069C35.0587 13.3801 35.2442 13.2907 35.4424 13.2456C35.6407 13.2005 35.8466 13.2007 36.0448 13.2462C36.2429 13.2918 36.4283 13.3815 36.5869 13.5087C36.7456 13.6359 36.8734 13.7973 36.961 13.9809C37.1252 14.2 37.2227 14.462 37.2416 14.7352C37.2605 15.0085 37.2001 15.2814 37.0676 15.5211L38.7498 16.4215Z" fill="#4374BA"/>
<path d="M38.7141 12.3932L38.4298 12.5235L39.0103 13.7083L39.2827 13.5898C39.3683 13.5565 39.4455 13.5049 39.5089 13.4385C39.5723 13.3721 39.6203 13.2926 39.6497 13.2056C39.6791 13.1186 39.689 13.0263 39.6788 12.935C39.6686 12.8438 39.6386 12.7559 39.5907 12.6776C39.5657 12.59 39.5208 12.5093 39.4595 12.4419C39.3982 12.3745 39.3222 12.3222 39.2374 12.2889C39.1526 12.2557 39.0612 12.2425 38.9705 12.2503C38.8797 12.2581 38.792 12.2867 38.7141 12.334M41.9008 14.9405L41.0834 15.5329L39.6026 14.3481L39.3538 14.4548L40.0409 15.9358L39.1643 16.3386L37.1741 12.0378L38.418 11.4691C38.593 11.3624 38.7898 11.2966 38.9938 11.2765C39.1978 11.2565 39.4037 11.2828 39.5961 11.3534C39.7886 11.424 39.9626 11.5371 40.1052 11.6843C40.2479 11.8315 40.3555 12.0091 40.42 12.2036C40.5612 12.4553 40.6232 12.7438 40.5979 13.0313C40.5725 13.3188 40.461 13.5919 40.2778 13.815L41.9008 14.9405Z" fill="#4374BA"/>
<path d="M43.832 14.6087C42.9198 14.8931 42.0905 14.4902 41.7115 13.2225L40.8704 10.4856L41.8062 10.1894L42.6473 12.9263C42.825 13.5068 43.1449 13.7793 43.5595 13.6609C43.9741 13.5424 44.0926 13.1277 43.9149 12.5471L43.062 9.79841L44.0215 9.47852L44.8626 12.2036C45.2535 13.4831 44.756 14.3007 43.8557 14.5732" fill="#4374BA"/>
<path d="M46.6039 9.91688H46.3551L46.5921 11.2912H46.8053C46.902 11.2904 46.9971 11.2667 47.0829 11.2223C47.1687 11.1778 47.2429 11.1138 47.2994 11.0354C47.356 10.9569 47.3932 10.8663 47.4082 10.7708C47.4232 10.6753 47.4155 10.5776 47.3858 10.4856C47.2989 10.0354 47.0501 9.84579 46.6395 9.91688M47.0304 12.168H46.7816L47.0422 13.7201L46.0945 13.886L45.2534 9.25339L46.4381 9.04013C46.6406 8.9828 46.8535 8.97197 47.0609 9.00845C47.2682 9.04492 47.4646 9.12777 47.6355 9.25079C47.8063 9.37382 47.9472 9.53385 48.0475 9.71894C48.1479 9.90403 48.2051 10.1094 48.215 10.3197C48.2757 10.5265 48.2893 10.7442 48.255 10.957C48.2206 11.1697 48.1391 11.3721 48.0165 11.5493C47.8938 11.7265 47.7331 11.874 47.5461 11.9811C47.3591 12.0881 47.1505 12.152 46.9356 12.168" fill="#4374BA"/>
<path d="M50.9042 9.5851L51.0937 13.3409L50.1223 13.3765L49.9328 9.6325L48.8429 9.69174L48.8074 8.6965L51.8993 8.54248L52.077 9.52586L50.9042 9.5851Z" fill="#4374BA"/>
<path d="M52.9351 8.57668L52.7288 13.3232L53.6993 13.3655L53.9056 8.61889L52.9351 8.57668Z" fill="#4374BA"/>
<path d="M56.7208 9.76302C56.164 9.68008 55.7493 10.2132 55.619 11.1492C55.4887 12.0852 55.7256 12.725 56.2706 12.808C56.8155 12.8909 57.242 12.3577 57.3842 11.4217C57.5263 10.4857 57.2894 9.84596 56.7208 9.76302ZM56.1284 13.7203C55.0149 13.5544 54.4344 12.4644 54.6476 11.0189C54.8609 9.57345 55.7493 8.64931 56.8629 8.85072C57.9765 9.05214 58.5688 10.1185 58.3437 11.5521C58.1186 12.9857 57.2538 13.9217 56.1284 13.7203Z" fill="#4374BA"/>
<path d="M60.8551 14.7511L60.2154 11.5877L59.3743 14.3009L58.5095 14.0402L59.9074 9.50244L60.8077 9.78679L61.4001 12.7369L62.1819 10.2015L63.0349 10.4621L61.6607 14.9999L60.8551 14.7511Z" fill="#4374BA"/>
<path d="M65.9611 12.8317L65.5346 13.6848L66.4468 14.1469L66.1151 15.0947L65.0844 14.5734L64.2789 16.1847L63.4141 15.7582L65.5464 11.5166L67.6432 12.5711L67.1931 13.436L65.9611 12.8317Z" fill="#4374BA"/>
<path d="M69.1241 14.5142L68.8634 14.3365L68.1053 15.5213L68.3659 15.6872C68.4434 15.74 68.5318 15.7748 68.6246 15.7889C68.7174 15.8031 68.8121 15.7963 68.9019 15.769C68.9917 15.7417 69.0742 15.6947 69.1434 15.6313C69.2126 15.5679 69.2667 15.4898 69.3018 15.4028C69.3623 15.3348 69.4064 15.2538 69.4306 15.1661C69.4548 15.0784 69.4584 14.9862 69.4412 14.8968C69.424 14.8074 69.3865 14.7232 69.3315 14.6507C69.2765 14.5782 69.2055 14.5193 69.1241 14.4787M68.6028 18.5662L67.6551 18.1989L67.8565 16.3151L67.6433 16.1729L66.7548 17.5354L65.9492 17.0141L68.5317 13.0332L69.7164 13.7796C69.8974 13.8719 70.0554 14.0035 70.179 14.1648C70.3026 14.326 70.3885 14.5129 70.4305 14.7117C70.4725 14.9104 70.4696 15.1161 70.4219 15.3136C70.3741 15.5111 70.2829 15.6954 70.1547 15.853C70.0248 16.0931 69.8281 16.2902 69.5884 16.4206C69.3487 16.551 69.0763 16.609 68.8042 16.5876L68.6028 18.5662Z" fill="#4374BA"/>
<path d="M68.8279 18.9924L71.8606 15.3433L73.7323 16.9072L73.1281 17.6299L71.9909 16.6821L71.446 17.3456L72.3107 18.0683L71.7776 18.9095L70.8181 18.092L70.1665 18.874L71.3512 19.8692L70.747 20.5801L68.8279 18.9924Z" fill="#4374BA"/>
<path d="M71.126 20.9711L74.5496 17.6655L76.2436 19.4309L75.5565 20.0825L74.5378 19.0044L73.898 19.6086L74.6918 20.4261L74.0757 21.1844L73.211 20.2839L72.4646 20.9948L73.5308 22.1085L72.8556 22.7602L71.126 20.9711Z" fill="#4374BA"/>
<path d="M87.2137 25.2129C84.1579 18.4172 79.2015 12.651 72.9422 8.60978C66.6829 4.56853 59.3882 2.42488 51.938 2.4374C44.4878 2.44993 37.2003 4.61809 30.9547 8.68037C24.709 12.7426 19.772 18.5255 16.7391 25.3313C16.6443 25.5446 14.2395 25.0351 14.2395 25.0351C17.3785 17.6142 22.634 11.2826 29.3497 6.83121C36.0653 2.37981 43.9434 0.00585937 52.0001 0.00585938C60.0567 0.00585937 67.9348 2.37981 74.6505 6.83121C81.3661 11.2826 86.6216 17.6142 89.7606 25.0351C89.7606 25.0351 87.3913 25.4735 87.2137 25.2129Z" fill="#4374BA"/>
<path d="M51.9942 82.0003C43.92 82.0095 36.0238 79.6279 29.3008 75.1559C22.5779 70.6839 17.329 64.3215 14.2158 56.8707C14.2158 56.8707 16.5851 56.3731 16.7154 56.5863C19.7349 63.4329 24.6795 69.2538 30.9474 73.3402C37.2152 77.4266 44.5358 79.6023 52.0178 79.6023C59.4998 79.6023 66.8204 77.4266 73.0883 73.3402C79.3561 69.2538 84.3008 63.4329 87.3203 56.5863C88.1569 56.6048 88.9882 56.7241 89.7962 56.9418C86.6711 64.3828 81.4163 70.7339 74.6925 75.1967C67.9686 79.6594 60.0758 82.0347 52.006 82.024" fill="#4374BA"/>
<path d="M36.2976 25.1061C40.4791 20.9776 46.1184 18.6626 51.9942 18.6626C57.87 18.6626 63.5092 20.9776 67.6907 25.1061C67.6907 25.1061 66.5061 25.426 66.2573 25.2246C62.3215 21.6825 57.209 19.7315 51.9144 19.7512C46.6198 19.7709 41.5218 21.7599 37.6126 25.3312C37.423 25.5089 36.2976 25.118 36.2976 25.1061Z" fill="#4374BA"/>
<path d="M51.9942 63.3394C49.0733 63.3512 46.1788 62.7859 43.477 61.6757C40.7751 60.5656 38.3192 58.9325 36.2502 56.8704C36.2502 56.8704 37.3401 56.4557 37.5178 56.6216C41.4602 60.2756 46.6369 62.3057 52.0119 62.3057C57.3869 62.3057 62.5637 60.2756 66.5061 56.6216C66.6838 56.4557 67.7973 56.8586 67.7973 56.8586C65.7248 58.9374 63.2615 60.5856 60.5492 61.708C57.837 62.8305 54.9295 63.4051 51.9942 63.3987" fill="#4374BA"/>
<path d="M42.1142 72.3914L42.9909 69.382L41.0954 72.0241L40.0529 71.6568L40.2899 68.4105L39.0341 71.2777L38.0864 70.9223L39.9937 66.6333L41.4034 67.1309L41.1665 70.4839L43.133 67.7589L44.5072 68.2565L43.2396 72.7943L42.1142 72.3914Z" fill="#4374BA"/>
<path d="M44.4124 73.0078L45.3008 68.3989L48.1677 68.9558L48.0018 69.8799L46.2486 69.5363L46.0827 70.3775L47.4213 70.6382L47.3858 71.5979L45.8932 71.3135L45.7036 72.3088L47.5161 72.6642L47.3384 73.5765L44.4124 73.0078Z" fill="#4374BA"/>
<path d="M52.5982 73.9435L52.5153 70.8156L51.4965 73.9079L50.4185 73.8606L49.6485 70.6971L49.3168 73.8132L48.3098 73.7776L48.8311 69.0977L50.3237 69.1569L51.1174 72.4269L52.1599 69.228L53.617 69.2872L53.7829 73.9909L52.5982 73.9435Z" fill="#4374BA"/>
<path d="M56.318 71.6214H55.9034L56.0337 72.8062H56.4602C56.9222 72.8062 57.1828 72.5337 57.1354 72.1428C57.088 71.7518 56.7919 71.5385 56.318 71.5977M56.1285 69.7968L55.6783 69.9035L55.7849 70.9579H56.1758C56.6142 70.9579 56.8156 70.6736 56.78 70.3419C56.7445 70.0101 56.5312 69.8442 56.0929 69.8916M56.5431 73.7185L54.9794 73.8844L54.4937 69.1452L56.0929 68.9793C57.1473 68.8727 57.7159 69.2755 57.7988 70.022C57.8247 70.2366 57.7841 70.4539 57.6824 70.6447C57.5807 70.8354 57.4228 70.9903 57.2302 71.0883C57.4871 71.1165 57.7254 71.2361 57.9015 71.4253C58.0776 71.6145 58.1799 71.8607 58.1897 72.1191C58.2845 73.0195 57.6567 73.5408 56.5431 73.6474" fill="#4374BA"/>
<path d="M59.2915 73.2448L58.178 68.6833L61.0211 67.9961L61.2462 68.8965L59.5048 69.3112L59.718 70.1524L61.033 69.8325L61.4121 70.7211L59.9431 71.0884L60.18 72.0718L61.9688 71.6334L62.1939 72.5339L59.2915 73.2448Z" fill="#4374BA"/>
<path d="M63.2481 68.1262L62.8927 68.2565L63.3903 69.5361L63.722 69.4058C64.184 69.228 64.3736 68.8963 64.2077 68.4698C64.0418 68.0432 63.722 67.9485 63.2481 68.1262ZM66.5888 70.792L65.5464 71.3962L63.9945 70.2114L63.6983 70.3299L64.2669 71.8346L63.1889 72.2493L61.5186 67.8537L63.0586 67.2731C64.1129 66.8703 64.9303 67.1072 65.2739 68.0195C65.3844 68.282 65.4108 68.5723 65.3492 68.8503C65.2877 69.1283 65.1413 69.3804 64.9303 69.5716L66.5888 70.792Z" fill="#4374BA"/>
</g>
<defs>
<clipPath id="clip0_1627_13496">
<rect width="104" height="82" fill="white"/>
</clipPath>
</defs>
</svg>
